<svg width="24" height="24" viewBox="0 0 24 24" fill="none" xmlns="http://www.w3.org/2000/svg">
<path d="M11.074 2.633C11.394 1.789 12.605 1.789 12.926 2.633L14.996 8.367C15.141 8.747 15.51 9 15.922 9H21.009C21.949 9 22.359 10.17 21.62 10.743L18 14C17.8378 14.1247 17.7193 14.2975 17.6614 14.4937C17.6036 14.6898 17.6094 14.8993 17.678 15.092L19 20.695C19.322 21.595 18.28 22.368 17.492 21.814L12.575 18.694C12.4066 18.5757 12.2058 18.5122 12 18.5122C11.7941 18.5122 11.5933 18.5757 11.425 18.694L6.50795 21.814C5.72095 22.368 4.67795 21.594 4.99995 20.695L6.32195 15.092C6.39053 14.8993 6.39631 14.6898 6.33846 14.4937C6.28061 14.2975 6.16211 14.1247 5.99995 14L2.37995 10.743C1.63995 10.17 2.05195 9 2.98995 9H8.07695C8.27725 9.00067 8.47302 8.9405 8.63837 8.82747C8.80372 8.71444 8.93086 8.55387 9.00295 8.367L11.073 2.633H11.074Z" stroke="#F7F700" stroke-width="2" stroke-linecap="round" stroke-linejoin="round"/>
</svg>
