<svg width="25" height="25" viewBox="0 0 25 25" fill="none" xmlns="http://www.w3.org/2000/svg">
<path d="M12.5 1.5625C6.45996 1.5625 1.5625 6.45996 1.5625 12.5C1.5625 18.54 6.45996 23.4375 12.5 23.4375C18.54 23.4375 23.4375 18.54 23.4375 12.5C23.4375 6.45996 18.54 1.5625 12.5 1.5625ZM12.5 21.582C7.48535 21.582 3.41797 17.5146 3.41797 12.5C3.41797 7.48535 7.48535 3.41797 12.5 3.41797C17.5146 3.41797 21.582 7.48535 21.582 12.5C21.582 17.5146 17.5146 21.582 12.5 21.582ZM13.6646 11.9336L13.0444 11.7896V8.51074C13.9722 8.6377 14.5459 9.21875 14.6436 9.93164C14.6558 10.0293 14.7388 10.1001 14.8364 10.1001H15.9326C16.0474 10.1001 16.1377 10 16.1279 9.88525C15.979 8.36426 14.7266 7.3877 13.0542 7.21924V6.4209C13.0542 6.31348 12.9663 6.22559 12.8589 6.22559H12.1729C12.0654 6.22559 11.9775 6.31348 11.9775 6.4209V7.22656C10.249 7.39502 8.89648 8.34961 8.89648 10.1318C8.89648 11.7822 10.1123 12.5781 11.3892 12.8833L11.9922 13.0371V16.521C10.9131 16.377 10.3076 15.8008 10.1831 15.0244C10.1685 14.9316 10.0854 14.8633 9.99023 14.8633H8.8623C8.74756 14.8633 8.65723 14.9609 8.66699 15.0757C8.77686 16.4185 9.79492 17.6538 11.9678 17.8125V18.5791C11.9678 18.6865 12.0557 18.7744 12.1631 18.7744H12.8564C12.9639 18.7744 13.0518 18.6865 13.0518 18.5767L13.0469 17.8027C14.9585 17.6343 16.3257 16.6113 16.3257 14.7754C16.3232 13.0811 15.2466 12.3242 13.6646 11.9336ZM11.9897 11.5381C11.853 11.499 11.7383 11.4624 11.6235 11.416C10.7983 11.1182 10.415 10.6372 10.415 10.0171C10.415 9.13086 11.0864 8.62549 11.9897 8.51074V11.5381ZM13.0444 16.5283V13.2642C13.1201 13.2861 13.1885 13.3032 13.2593 13.3179C14.4141 13.6694 14.8022 14.1577 14.8022 14.9072C14.8022 15.8618 14.0845 16.4355 13.0444 16.5283Z" fill="#F7F700"/>
</svg>
