<svg width="36" height="36" viewBox="0 0 36 36" fill="none" xmlns="http://www.w3.org/2000/svg">
<g filter="url(#filter0_d_1_1147)">
<path fill-rule="evenodd" clip-rule="evenodd" d="M28.5 1.75H7.5C7.03587 1.75 6.59075 1.93437 6.26256 2.26256C5.93437 2.59075 5.75 3.03587 5.75 3.5V24.5C5.75 24.9641 5.93437 25.4092 6.26256 25.7374C6.59075 26.0656 7.03587 26.25 7.5 26.25H28.5C28.9641 26.25 29.4092 26.0656 29.7374 25.7374C30.0656 25.4092 30.25 24.9641 30.25 24.5V3.5C30.25 3.03587 30.0656 2.59075 29.7374 2.26256C29.4092 1.93437 28.9641 1.75 28.5 1.75ZM7.5 0C6.57174 0 5.6815 0.368749 5.02513 1.02513C4.36875 1.6815 4 2.57174 4 3.5L4 24.5C4 25.4283 4.36875 26.3185 5.02513 26.9749C5.6815 27.6313 6.57174 28 7.5 28H28.5C29.4283 28 30.3185 27.6313 30.9749 26.9749C31.6313 26.3185 32 25.4283 32 24.5V3.5C32 2.57174 31.6313 1.6815 30.9749 1.02513C30.3185 0.368749 29.4283 0 28.5 0L7.5 0Z" fill="#293443"/>
<path fill-rule="evenodd" clip-rule="evenodd" d="M18.6202 19.8694C18.7017 19.7881 18.7664 19.6915 18.8105 19.5852C18.8546 19.4789 18.8773 19.365 18.8773 19.2499C18.8773 19.1348 18.8546 19.0208 18.8105 18.9145C18.7664 18.8082 18.7017 18.7117 18.6202 18.6304L13.988 13.9999L18.6202 9.36939C18.7016 9.28803 18.7661 9.19145 18.8102 9.08516C18.8542 8.97886 18.8768 8.86494 18.8768 8.74988C18.8768 8.63483 18.8542 8.52091 18.8102 8.41461C18.7661 8.30832 18.7016 8.21174 18.6202 8.13038C18.5389 8.04903 18.4423 7.9845 18.336 7.94047C18.2297 7.89644 18.1158 7.87378 18.0007 7.87378C17.8857 7.87378 17.7718 7.89644 17.6655 7.94047C17.5592 7.9845 17.4626 8.04903 17.3812 8.13038L12.1312 13.3804C12.0498 13.4617 11.9851 13.5582 11.941 13.6645C11.8969 13.7708 11.8742 13.8848 11.8742 13.9999C11.8742 14.115 11.8969 14.2289 11.941 14.3352C11.9851 14.4415 12.0498 14.5381 12.1312 14.6194L17.3812 19.8694C17.4625 19.9509 17.5591 20.0155 17.6654 20.0596C17.7717 20.1037 17.8856 20.1264 18.0007 20.1264C18.1158 20.1264 18.2298 20.1037 18.3361 20.0596C18.4424 20.0155 18.539 19.9509 18.6202 19.8694Z" fill="#293443"/>
<path fill-rule="evenodd" clip-rule="evenodd" d="M24.125 14C24.125 13.7679 24.0328 13.5454 23.8687 13.3813C23.7046 13.2172 23.4821 13.125 23.25 13.125H14.5C14.2679 13.125 14.0454 13.2172 13.8813 13.3813C13.7172 13.5454 13.625 13.7679 13.625 14C13.625 14.2321 13.7172 14.4546 13.8813 14.6187C14.0454 14.7828 14.2679 14.875 14.5 14.875H23.25C23.4821 14.875 23.7046 14.7828 23.8687 14.6187C24.0328 14.4546 24.125 14.2321 24.125 14Z" fill="#293443"/>
</g>
<defs>
<filter id="filter0_d_1_1147" x="0" y="0" width="36" height="36" filterUnits="userSpaceOnUse" color-interpolation-filters="sRGB">
<feFlood flood-opacity="0" result="BackgroundImageFix"/>
<feColorMatrix in="SourceAlpha" type="matrix" values="0 0 0 0 0 0 0 0 0 0 0 0 0 0 0 0 0 0 127 0" result="hardAlpha"/>
<feOffset dy="4"/>
<feGaussianBlur stdDeviation="2"/>
<feColorMatrix type="matrix" values="0 0 0 0 0 0 0 0 0 0 0 0 0 0 0 0 0 0 0.25 0"/>
<feBlend mode="normal" in2="BackgroundImageFix" result="effect1_dropShadow_1_1147"/>
<feBlend mode="normal" in="SourceGraphic" in2="effect1_dropShadow_1_1147" result="shape"/>
</filter>
</defs>
</svg>
