<svg width="36" height="36" viewBox="0 0 36 36" fill="none" xmlns="http://www.w3.org/2000/svg">
<g filter="url(#filter0_d_701_889)">
<path fill-rule="evenodd" clip-rule="evenodd" d="M28.5 1.75H7.5C7.03587 1.75 6.59075 1.93437 6.26256 2.26256C5.93437 2.59075 5.75 3.03587 5.75 3.5V24.5C5.75 24.9641 5.93437 25.4092 6.26256 25.7374C6.59075 26.0656 7.03587 26.25 7.5 26.25H28.5C28.9641 26.25 29.4092 26.0656 29.7374 25.7374C30.0656 25.4092 30.25 24.9641 30.25 24.5V3.5C30.25 3.03587 30.0656 2.59075 29.7374 2.26256C29.4092 1.93437 28.9641 1.75 28.5 1.75ZM7.5 0C6.57174 0 5.6815 0.368749 5.02513 1.02513C4.36875 1.6815 4 2.57174 4 3.5L4 24.5C4 25.4283 4.36875 26.3185 5.02513 26.9749C5.6815 27.6313 6.57174 28 7.5 28H28.5C29.4283 28 30.3185 27.6313 30.9749 26.9749C31.6313 26.3185 32 25.4283 32 24.5V3.5C32 2.57174 31.6313 1.6815 30.9749 1.02513C30.3185 0.368749 29.4283 0 28.5 0L7.5 0Z" fill="#293443"/>
<path fill-rule="evenodd" clip-rule="evenodd" d="M18.6202 19.8695C18.7017 19.7882 18.7664 19.6917 18.8105 19.5854C18.8546 19.4791 18.8773 19.3651 18.8773 19.25C18.8773 19.1349 18.8546 19.021 18.8105 18.9146C18.7664 18.8083 18.7017 18.7118 18.6202 18.6305L13.988 14L18.6202 9.36951C18.7016 9.28815 18.7661 9.19157 18.8102 9.08528C18.8542 8.97898 18.8768 8.86506 18.8768 8.75001C18.8768 8.63496 18.8542 8.52103 18.8102 8.41474C18.7661 8.30844 18.7016 8.21186 18.6202 8.13051C18.5389 8.04915 18.4423 7.98462 18.336 7.94059C18.2297 7.89656 18.1158 7.8739 18.0007 7.8739C17.8857 7.8739 17.7718 7.89656 17.6655 7.94059C17.5592 7.98462 17.4626 8.04915 17.3812 8.13051L12.1312 13.3805C12.0498 13.4618 11.9851 13.5583 11.941 13.6646C11.8969 13.771 11.8742 13.8849 11.8742 14C11.8742 14.1151 11.8969 14.2291 11.941 14.3354C11.9851 14.4417 12.0498 14.5382 12.1312 14.6195L17.3812 19.8695C17.4625 19.951 17.5591 20.0156 17.6654 20.0598C17.7717 20.1039 17.8856 20.1266 18.0007 20.1266C18.1158 20.1266 18.2298 20.1039 18.3361 20.0598C18.4424 20.0156 18.539 19.951 18.6202 19.8695Z" fill="#293443"/>
<path fill-rule="evenodd" clip-rule="evenodd" d="M24.125 14C24.125 13.7679 24.0328 13.5454 23.8687 13.3813C23.7046 13.2172 23.4821 13.125 23.25 13.125H14.5C14.2679 13.125 14.0454 13.2172 13.8813 13.3813C13.7172 13.5454 13.625 13.7679 13.625 14C13.625 14.2321 13.7172 14.4546 13.8813 14.6187C14.0454 14.7828 14.2679 14.875 14.5 14.875H23.25C23.4821 14.875 23.7046 14.7828 23.8687 14.6187C24.0328 14.4546 24.125 14.2321 24.125 14Z" fill="#293443"/>
</g>
<defs>
<filter id="filter0_d_701_889" x="0" y="0" width="36" height="36" filterUnits="userSpaceOnUse" color-interpolation-filters="sRGB">
<feFlood flood-opacity="0" result="BackgroundImageFix"/>
<feColorMatrix in="SourceAlpha" type="matrix" values="0 0 0 0 0 0 0 0 0 0 0 0 0 0 0 0 0 0 127 0" result="hardAlpha"/>
<feOffset dy="4"/>
<feGaussianBlur stdDeviation="2"/>
<feColorMatrix type="matrix" values="0 0 0 0 0 0 0 0 0 0 0 0 0 0 0 0 0 0 0.25 0"/>
<feBlend mode="normal" in2="BackgroundImageFix" result="effect1_dropShadow_701_889"/>
<feBlend mode="normal" in="SourceGraphic" in2="effect1_dropShadow_701_889" result="shape"/>
</filter>
</defs>
</svg>
