<svg width="36" height="36" viewBox="0 0 36 36" fill="none" xmlns="http://www.w3.org/2000/svg">
<g filter="url(#filter0_d_701_840)">
<path fill-rule="evenodd" clip-rule="evenodd" d="M28.5 1.75H7.5C7.03587 1.75 6.59075 1.93437 6.26256 2.26256C5.93437 2.59075 5.75 3.03587 5.75 3.5V24.5C5.75 24.9641 5.93437 25.4092 6.26256 25.7374C6.59075 26.0656 7.03587 26.25 7.5 26.25H28.5C28.9641 26.25 29.4092 26.0656 29.7374 25.7374C30.0656 25.4092 30.25 24.9641 30.25 24.5V3.5C30.25 3.03587 30.0656 2.59075 29.7374 2.26256C29.4092 1.93437 28.9641 1.75 28.5 1.75ZM7.5 0C6.57174 0 5.6815 0.368749 5.02513 1.02513C4.36875 1.6815 4 2.57174 4 3.5L4 24.5C4 25.4283 4.36875 26.3185 5.02513 26.9749C5.6815 27.6313 6.57174 28 7.5 28H28.5C29.4283 28 30.3185 27.6313 30.9749 26.9749C31.6313 26.3185 32 25.4283 32 24.5V3.5C32 2.57174 31.6313 1.6815 30.9749 1.02513C30.3185 0.368749 29.4283 0 28.5 0L7.5 0Z" fill="#1E2630"/>
<path fill-rule="evenodd" clip-rule="evenodd" d="M24.7449 7.25548C24.8264 7.33676 24.891 7.43331 24.9351 7.53962C24.9792 7.64592 25.0019 7.75988 25.0019 7.87498C25.0019 7.99007 24.9792 8.10403 24.9351 8.21034C24.891 8.31664 24.8264 8.4132 24.7449 8.49448L12.4949 20.7445C12.3306 20.9088 12.1077 21.0011 11.8754 21.0011C11.643 21.0011 11.4202 20.9088 11.2559 20.7445C11.0916 20.5802 10.9993 20.3573 10.9993 20.125C10.9993 19.8926 11.0916 19.6698 11.2559 19.5055L23.5059 7.25548C23.5871 7.17399 23.6837 7.10934 23.79 7.06523C23.8963 7.02112 24.0103 6.99841 24.1254 6.99841C24.2405 6.99841 24.3544 7.02112 24.4607 7.06523C24.567 7.10934 24.6636 7.17399 24.7449 7.25548Z" fill="#1E2630"/>
<path fill-rule="evenodd" clip-rule="evenodd" d="M11.256 7.25548C11.1745 7.33676 11.1099 7.43331 11.0658 7.53962C11.0217 7.64592 10.999 7.75988 10.999 7.87498C10.999 7.99007 11.0217 8.10403 11.0658 8.21034C11.1099 8.31664 11.1745 8.4132 11.256 8.49448L23.506 20.7445C23.6703 20.9088 23.8932 21.0011 24.1255 21.0011C24.3579 21.0011 24.5807 20.9088 24.745 20.7445C24.9093 20.5802 25.0016 20.3573 25.0016 20.125C25.0016 19.8926 24.9093 19.6698 24.745 19.5055L12.495 7.25548C12.4137 7.17399 12.3172 7.10934 12.2109 7.06523C12.1046 7.02112 11.9906 6.99841 11.8755 6.99841C11.7604 6.99841 11.6465 7.02112 11.5402 7.06523C11.4339 7.10934 11.3373 7.17399 11.256 7.25548Z" fill="#1E2630"/>
</g>
<defs>
<filter id="filter0_d_701_840" x="0" y="0" width="36" height="36" filterUnits="userSpaceOnUse" color-interpolation-filters="sRGB">
<feFlood flood-opacity="0" result="BackgroundImageFix"/>
<feColorMatrix in="SourceAlpha" type="matrix" values="0 0 0 0 0 0 0 0 0 0 0 0 0 0 0 0 0 0 127 0" result="hardAlpha"/>
<feOffset dy="4"/>
<feGaussianBlur stdDeviation="2"/>
<feColorMatrix type="matrix" values="0 0 0 0 0 0 0 0 0 0 0 0 0 0 0 0 0 0 0.25 0"/>
<feBlend mode="normal" in2="BackgroundImageFix" result="effect1_dropShadow_701_840"/>
<feBlend mode="normal" in="SourceGraphic" in2="effect1_dropShadow_701_840" result="shape"/>
</filter>
</defs>
</svg>
