<svg width="36" height="36" viewBox="0 0 36 36" fill="none" xmlns="http://www.w3.org/2000/svg">
<g filter="url(#filter0_d_1_1176)">
<path fill-rule="evenodd" clip-rule="evenodd" d="M28.5 1.75H7.5C7.03587 1.75 6.59075 1.93437 6.26256 2.26256C5.93437 2.59075 5.75 3.03587 5.75 3.5V24.5C5.75 24.9641 5.93437 25.4092 6.26256 25.7374C6.59075 26.0656 7.03587 26.25 7.5 26.25H28.5C28.9641 26.25 29.4092 26.0656 29.7374 25.7374C30.0656 25.4092 30.25 24.9641 30.25 24.5V3.5C30.25 3.03587 30.0656 2.59075 29.7374 2.26256C29.4092 1.93437 28.9641 1.75 28.5 1.75ZM7.5 0C6.57174 0 5.6815 0.368749 5.02513 1.02513C4.36875 1.6815 4 2.57174 4 3.5L4 24.5C4 25.4283 4.36875 26.3185 5.02513 26.9749C5.6815 27.6313 6.57174 28 7.5 28H28.5C29.4283 28 30.3185 27.6313 30.9749 26.9749C31.6313 26.3185 32 25.4283 32 24.5V3.5C32 2.57174 31.6313 1.6815 30.9749 1.02513C30.3185 0.368749 29.4283 0 28.5 0L7.5 0Z" fill="#F7F700"/>
<path fill-rule="evenodd" clip-rule="evenodd" d="M24.7451 7.25536C24.8266 7.33663 24.8913 7.43319 24.9354 7.5395C24.9795 7.6458 25.0022 7.75976 25.0022 7.87486C25.0022 7.98995 24.9795 8.10391 24.9354 8.21021C24.8913 8.31652 24.8266 8.41308 24.7451 8.49436L12.4951 20.7444C12.3308 20.9087 12.108 21.001 11.8756 21.001C11.6433 21.001 11.4204 20.9087 11.2561 20.7444C11.0918 20.5801 10.9995 20.3572 10.9995 20.1249C10.9995 19.8925 11.0918 19.6697 11.2561 19.5054L23.5061 7.25536C23.5874 7.17387 23.684 7.10922 23.7903 7.06511C23.8966 7.021 24.0105 6.99829 24.1256 6.99829C24.2407 6.99829 24.3547 7.021 24.461 7.06511C24.5673 7.10922 24.6638 7.17387 24.7451 7.25536Z" fill="#F7F700"/>
<path fill-rule="evenodd" clip-rule="evenodd" d="M11.2561 7.25536C11.1746 7.33663 11.11 7.43319 11.0658 7.5395C11.0217 7.6458 10.999 7.75976 10.999 7.87486C10.999 7.98995 11.0217 8.10391 11.0658 8.21021C11.11 8.31652 11.1746 8.41308 11.2561 8.49436L23.5061 20.7444C23.6704 20.9087 23.8932 21.001 24.1256 21.001C24.3579 21.001 24.5808 20.9087 24.7451 20.7444C24.9094 20.5801 25.0017 20.3572 25.0017 20.1249C25.0017 19.8925 24.9094 19.6697 24.7451 19.5054L12.4951 7.25536C12.4138 7.17387 12.3173 7.10922 12.2109 7.06511C12.1046 7.021 11.9907 6.99829 11.8756 6.99829C11.7605 6.99829 11.6465 7.021 11.5402 7.06511C11.4339 7.10922 11.3374 7.17387 11.2561 7.25536Z" fill="#F7F700"/>
</g>
<defs>
<filter id="filter0_d_1_1176" x="0" y="0" width="36" height="36" filterUnits="userSpaceOnUse" color-interpolation-filters="sRGB">
<feFlood flood-opacity="0" result="BackgroundImageFix"/>
<feColorMatrix in="SourceAlpha" type="matrix" values="0 0 0 0 0 0 0 0 0 0 0 0 0 0 0 0 0 0 127 0" result="hardAlpha"/>
<feOffset dy="4"/>
<feGaussianBlur stdDeviation="2"/>
<feColorMatrix type="matrix" values="0 0 0 0 0 0 0 0 0 0 0 0 0 0 0 0 0 0 0.25 0"/>
<feBlend mode="normal" in2="BackgroundImageFix" result="effect1_dropShadow_1_1176"/>
<feBlend mode="normal" in="SourceGraphic" in2="effect1_dropShadow_1_1176" result="shape"/>
</filter>
</defs>
</svg>
