<svg width="36" height="36" viewBox="0 0 36 36" fill="none" xmlns="http://www.w3.org/2000/svg">
<g filter="url(#filter0_d_602_761)">
<path fill-rule="evenodd" clip-rule="evenodd" d="M28.5 1.75H7.5C7.03587 1.75 6.59075 1.93437 6.26256 2.26256C5.93437 2.59075 5.75 3.03587 5.75 3.5V24.5C5.75 24.9641 5.93437 25.4092 6.26256 25.7374C6.59075 26.0656 7.03587 26.25 7.5 26.25H28.5C28.9641 26.25 29.4092 26.0656 29.7374 25.7374C30.0656 25.4092 30.25 24.9641 30.25 24.5V3.5C30.25 3.03587 30.0656 2.59075 29.7374 2.26256C29.4092 1.93437 28.9641 1.75 28.5 1.75ZM7.5 0C6.57174 0 5.6815 0.368749 5.02513 1.02513C4.36875 1.6815 4 2.57174 4 3.5L4 24.5C4 25.4283 4.36875 26.3185 5.02513 26.9749C5.6815 27.6313 6.57174 28 7.5 28H28.5C29.4283 28 30.3185 27.6313 30.9749 26.9749C31.6313 26.3185 32 25.4283 32 24.5V3.5C32 2.57174 31.6313 1.6815 30.9749 1.02513C30.3185 0.368749 29.4283 0 28.5 0L7.5 0Z" fill="#1E2630"/>
<path fill-rule="evenodd" clip-rule="evenodd" d="M24.7449 7.2556C24.8264 7.33688 24.891 7.43344 24.9351 7.53974C24.9792 7.64604 25.0019 7.76001 25.0019 7.8751C25.0019 7.99019 24.9792 8.10415 24.9351 8.21046C24.891 8.31676 24.8264 8.41332 24.7449 8.4946L12.4949 20.7446C12.3306 20.9089 12.1077 21.0012 11.8754 21.0012C11.643 21.0012 11.4202 20.9089 11.2559 20.7446C11.0916 20.5803 10.9993 20.3575 10.9993 20.1251C10.9993 19.8927 11.0916 19.6699 11.2559 19.5056L23.5059 7.2556C23.5871 7.17411 23.6837 7.10946 23.79 7.06535C23.8963 7.02124 24.0103 6.99854 24.1254 6.99854C24.2405 6.99854 24.3544 7.02124 24.4607 7.06535C24.567 7.10946 24.6636 7.17411 24.7449 7.2556Z" fill="#1E2630"/>
<path fill-rule="evenodd" clip-rule="evenodd" d="M11.256 7.2556C11.1745 7.33688 11.1099 7.43344 11.0658 7.53974C11.0217 7.64604 10.999 7.76001 10.999 7.8751C10.999 7.99019 11.0217 8.10415 11.0658 8.21046C11.1099 8.31676 11.1745 8.41332 11.256 8.4946L23.506 20.7446C23.6703 20.9089 23.8932 21.0012 24.1255 21.0012C24.3579 21.0012 24.5807 20.9089 24.745 20.7446C24.9093 20.5803 25.0016 20.3575 25.0016 20.1251C25.0016 19.8927 24.9093 19.6699 24.745 19.5056L12.495 7.2556C12.4137 7.17411 12.3172 7.10946 12.2109 7.06535C12.1046 7.02124 11.9906 6.99854 11.8755 6.99854C11.7604 6.99854 11.6465 7.02124 11.5402 7.06535C11.4339 7.10946 11.3373 7.17411 11.256 7.2556Z" fill="#1E2630"/>
</g>
<defs>
<filter id="filter0_d_602_761" x="0" y="0" width="36" height="36" filterUnits="userSpaceOnUse" color-interpolation-filters="sRGB">
<feFlood flood-opacity="0" result="BackgroundImageFix"/>
<feColorMatrix in="SourceAlpha" type="matrix" values="0 0 0 0 0 0 0 0 0 0 0 0 0 0 0 0 0 0 127 0" result="hardAlpha"/>
<feOffset dy="4"/>
<feGaussianBlur stdDeviation="2"/>
<feColorMatrix type="matrix" values="0 0 0 0 0 0 0 0 0 0 0 0 0 0 0 0 0 0 0.25 0"/>
<feBlend mode="normal" in2="BackgroundImageFix" result="effect1_dropShadow_602_761"/>
<feBlend mode="normal" in="SourceGraphic" in2="effect1_dropShadow_602_761" result="shape"/>
</filter>
</defs>
</svg>
