<svg width="36" height="36" viewBox="0 0 36 36" fill="none" xmlns="http://www.w3.org/2000/svg">
<g filter="url(#filter0_d_701_927)">
<path fill-rule="evenodd" clip-rule="evenodd" d="M28.5 1.75H7.5C7.03587 1.75 6.59075 1.93437 6.26256 2.26256C5.93437 2.59075 5.75 3.03587 5.75 3.5V24.5C5.75 24.9641 5.93437 25.4092 6.26256 25.7374C6.59075 26.0656 7.03587 26.25 7.5 26.25H28.5C28.9641 26.25 29.4092 26.0656 29.7374 25.7374C30.0656 25.4092 30.25 24.9641 30.25 24.5V3.5C30.25 3.03587 30.0656 2.59075 29.7374 2.26256C29.4092 1.93437 28.9641 1.75 28.5 1.75ZM7.5 0C6.57174 0 5.6815 0.368749 5.02513 1.02513C4.36875 1.6815 4 2.57174 4 3.5L4 24.5C4 25.4283 4.36875 26.3185 5.02513 26.9749C5.6815 27.6313 6.57174 28 7.5 28H28.5C29.4283 28 30.3185 27.6313 30.9749 26.9749C31.6313 26.3185 32 25.4283 32 24.5V3.5C32 2.57174 31.6313 1.6815 30.9749 1.02513C30.3185 0.368749 29.4283 0 28.5 0L7.5 0Z" fill="#F7F700"/>
<path fill-rule="evenodd" clip-rule="evenodd" d="M24.7451 7.25548C24.8266 7.33676 24.8913 7.43331 24.9354 7.53962C24.9795 7.64592 25.0022 7.75988 25.0022 7.87498C25.0022 7.99007 24.9795 8.10403 24.9354 8.21034C24.8913 8.31664 24.8266 8.4132 24.7451 8.49448L12.4951 20.7445C12.3308 20.9088 12.108 21.0011 11.8756 21.0011C11.6433 21.0011 11.4204 20.9088 11.2561 20.7445C11.0918 20.5802 10.9995 20.3573 10.9995 20.125C10.9995 19.8926 11.0918 19.6698 11.2561 19.5055L23.5061 7.25548C23.5874 7.17399 23.684 7.10934 23.7903 7.06523C23.8966 7.02112 24.0105 6.99841 24.1256 6.99841C24.2407 6.99841 24.3547 7.02112 24.461 7.06523C24.5673 7.10934 24.6638 7.17399 24.7451 7.25548Z" fill="#F7F700"/>
<path fill-rule="evenodd" clip-rule="evenodd" d="M11.2561 7.25548C11.1746 7.33676 11.11 7.43331 11.0658 7.53962C11.0217 7.64592 10.999 7.75988 10.999 7.87498C10.999 7.99007 11.0217 8.10403 11.0658 8.21034C11.11 8.31664 11.1746 8.4132 11.2561 8.49448L23.5061 20.7445C23.6704 20.9088 23.8932 21.0011 24.1256 21.0011C24.3579 21.0011 24.5808 20.9088 24.7451 20.7445C24.9094 20.5802 25.0017 20.3573 25.0017 20.125C25.0017 19.8926 24.9094 19.6698 24.7451 19.5055L12.4951 7.25548C12.4138 7.17399 12.3173 7.10934 12.2109 7.06523C12.1046 7.02112 11.9907 6.99841 11.8756 6.99841C11.7605 6.99841 11.6465 7.02112 11.5402 7.06523C11.4339 7.10934 11.3374 7.17399 11.2561 7.25548Z" fill="#F7F700"/>
</g>
<defs>
<filter id="filter0_d_701_927" x="0" y="0" width="36" height="36" filterUnits="userSpaceOnUse" color-interpolation-filters="sRGB">
<feFlood flood-opacity="0" result="BackgroundImageFix"/>
<feColorMatrix in="SourceAlpha" type="matrix" values="0 0 0 0 0 0 0 0 0 0 0 0 0 0 0 0 0 0 127 0" result="hardAlpha"/>
<feOffset dy="4"/>
<feGaussianBlur stdDeviation="2"/>
<feColorMatrix type="matrix" values="0 0 0 0 0 0 0 0 0 0 0 0 0 0 0 0 0 0 0.25 0"/>
<feBlend mode="normal" in2="BackgroundImageFix" result="effect1_dropShadow_701_927"/>
<feBlend mode="normal" in="SourceGraphic" in2="effect1_dropShadow_701_927" result="shape"/>
</filter>
</defs>
</svg>
