<svg width="25" height="25" viewBox="0 0 25 25" fill="none" xmlns="http://www.w3.org/2000/svg">
<path d="M9.55397 16.9188L12.4998 13.973L15.4456 16.9188L16.9186 15.4459L13.9727 12.5L16.9186 9.55422L15.4456 8.0813L12.4998 11.0271L9.55397 8.0813L8.08105 9.55422L11.0269 12.5L8.08105 15.4459L9.55397 16.9188Z" fill="#F7F700"/>
<path d="M12.5002 22.9167C18.2439 22.9167 22.9168 18.2438 22.9168 12.5C22.9168 6.75629 18.2439 2.08337 12.5002 2.08337C6.75641 2.08337 2.0835 6.75629 2.0835 12.5C2.0835 18.2438 6.75641 22.9167 12.5002 22.9167ZM12.5002 4.16671C17.095 4.16671 20.8335 7.90525 20.8335 12.5C20.8335 17.0948 17.095 20.8334 12.5002 20.8334C7.90537 20.8334 4.16683 17.0948 4.16683 12.5C4.16683 7.90525 7.90537 4.16671 12.5002 4.16671Z" fill="#F7F700"/>
</svg>
