<svg width="24" height="24" viewBox="0 0 24 24" fill="none" xmlns="http://www.w3.org/2000/svg">
<path d="M9.99992 17.2402L11.3333 17.9068V13.5135C11.3325 13.3386 11.2631 13.171 11.1399 13.0468L6.81992 8.66683H17.1933L12.8799 13.0468C12.7568 13.171 12.6873 13.3386 12.6866 13.5135L12.6666 18.6668L13.9999 19.3335V13.7868L18.3866 9.3335C18.5621 9.15547 18.6623 8.91676 18.6666 8.66683V8.00016C18.6666 7.82335 18.5963 7.65378 18.4713 7.52876C18.3463 7.40373 18.1767 7.3335 17.9999 7.3335H5.99992C5.82311 7.3335 5.65354 7.40373 5.52851 7.52876C5.40349 7.65378 5.33325 7.82335 5.33325 8.00016V8.66683C5.33752 8.91676 5.43778 9.15547 5.61325 9.3335L9.99992 13.7868V17.2402Z" fill="#F7F700"/>
<path d="M11.9999 1.3335C9.89026 1.3335 7.82796 1.95909 6.07384 3.13115C4.31972 4.30322 2.95254 5.96913 2.14521 7.91821C1.33787 9.86728 1.12664 12.012 1.53821 14.0811C1.94979 16.1503 2.96569 18.0509 4.45745 19.5426C5.94921 21.0344 7.84983 22.0503 9.91896 22.4619C11.9881 22.8734 14.1328 22.6622 16.0819 21.8549C18.031 21.0475 19.6969 19.6804 20.8689 17.9262C22.041 16.1721 22.6666 14.1098 22.6666 12.0002C22.6666 9.17119 21.5428 6.45808 19.5424 4.45769C17.542 2.4573 14.8289 1.3335 11.9999 1.3335ZM11.9999 21.3335C10.154 21.3335 8.34946 20.7861 6.8146 19.7605C5.27974 18.735 4.08347 17.2773 3.37705 15.5719C2.67063 13.8664 2.4858 11.9898 2.84593 10.1793C3.20606 8.36883 4.09497 6.70579 5.40026 5.4005C6.70555 4.09521 8.36859 3.2063 10.1791 2.84617C11.9896 2.48604 13.8662 2.67087 15.5716 3.37729C17.2771 4.0837 18.7347 5.27998 19.7603 6.81484C20.7859 8.3497 21.3333 10.1542 21.3333 12.0002C21.3333 14.4755 20.3499 16.8495 18.5996 18.5998C16.8492 20.3502 14.4753 21.3335 11.9999 21.3335Z" fill="#F7F700"/>
</svg>
