<svg width="19" height="23" viewBox="0 0 19 23" fill="none" xmlns="http://www.w3.org/2000/svg">
<path d="M4.49023 10.1523H14.5098C16.6618 10.1523 18.4062 12.264 18.4062 14.8691C18.4062 17.4742 16.6618 19.5859 14.5098 19.5859H10.6133H8.38672H4.49023C2.33819 19.5859 0.59375 17.4742 0.59375 14.8691H2.82031C2.82027 15.1347 2.86344 15.3976 2.94734 15.6429C3.03124 15.8882 3.15423 16.1111 3.3093 16.2989C3.46436 16.4867 3.64847 16.6357 3.85109 16.7373C4.05372 16.839 4.2709 16.8906 4.49023 16.8906L14.5098 16.8913C14.9527 16.8913 15.3776 16.6783 15.6908 16.2992C16.004 15.92 16.18 15.4057 16.18 14.8695C16.18 14.3333 16.004 13.819 15.6908 13.4398C15.3776 13.0607 14.9527 12.8477 14.5098 12.8477H4.49023C2.33819 12.8477 0.59375 10.736 0.59375 8.13086C0.59375 5.52575 2.33819 3.41406 4.49023 3.41406H7.74074H11.2593H14.5098C16.6618 3.41406 18.4062 5.52575 18.4062 8.13086H16.1797C16.1796 7.59476 16.0036 7.08064 15.6905 6.70156C15.3773 6.32248 14.9526 6.10947 14.5098 6.10938H4.49023C4.04734 6.10938 3.62259 6.32235 3.30942 6.70145C2.99625 7.08056 2.82031 7.59473 2.82031 8.13086C2.82031 8.66699 2.99625 9.18116 3.30942 9.56027C3.62259 9.93937 4.04734 10.1523 4.49023 10.1523Z" fill="#F7F700"/>
</svg>
