<svg width="35" height="40" viewBox="0 0 35 40" fill="none" xmlns="http://www.w3.org/2000/svg">
<path d="M28.4311 6.05518H6.56904C6.25278 6.05518 5.94948 6.19876 5.72585 6.45433C5.50222 6.70991 5.37659 7.05654 5.37659 7.41798V8.67518C5.37659 9.03661 5.50222 9.38325 5.72585 9.63882C5.94948 9.8944 6.25278 10.038 6.56904 10.038H28.4311C28.7473 10.038 29.0506 9.8944 29.2743 9.63882C29.4979 9.38325 29.6235 9.03661 29.6235 8.67518V7.41798C29.6235 7.05654 29.4979 6.70991 29.2743 6.45433C29.0506 6.19876 28.7473 6.05518 28.4311 6.05518Z" fill="#F7F700"/>
<path d="M28.4311 29.9619H6.56904C6.25278 29.9619 5.94948 30.1055 5.72585 30.3611C5.50222 30.6166 5.37659 30.9633 5.37659 31.3247V32.5819C5.37659 32.9434 5.50222 33.29 5.72585 33.5456C5.94948 33.8011 6.25278 33.9447 6.56904 33.9447H28.4311C28.7473 33.9447 29.0506 33.8011 29.2743 33.5456C29.4979 33.29 29.6235 32.9434 29.6235 32.5819V31.3247C29.6234 30.9633 29.4978 30.6167 29.2742 30.3612C29.0506 30.1056 28.7473 29.962 28.4311 29.9619Z" fill="#F7F700"/>
<path d="M29.6236 23.356C29.6236 22.9945 29.498 22.6479 29.2744 22.3923C29.0507 22.1367 28.7474 21.9932 28.4312 21.9932H14.8442C14.5279 21.9932 14.2246 22.1367 14.001 22.3923C13.7774 22.6479 13.6517 22.9945 13.6517 23.356V24.6132C13.6517 24.7921 13.6826 24.9693 13.7425 25.1346C13.8024 25.2999 13.8903 25.4502 14.001 25.5767C14.1117 25.7032 14.2432 25.8035 14.3879 25.872C14.5326 25.9404 14.6876 25.9756 14.8442 25.9756H28.4312C28.7474 25.9756 29.0506 25.832 29.2742 25.5765C29.4979 25.3211 29.6235 24.9745 29.6236 24.6132V23.356Z" fill="#F7F700"/>
<path d="M29.6236 15.4307C29.6236 15.0692 29.498 14.7226 29.2744 14.467C29.0507 14.2115 28.7474 14.0679 28.4312 14.0679H14.8442C14.6876 14.0679 14.5325 14.1031 14.3879 14.1716C14.2432 14.2401 14.1117 14.3405 14.001 14.467C13.8903 14.5936 13.8024 14.7438 13.7425 14.9092C13.6826 15.0745 13.6517 15.2517 13.6517 15.4307V16.6879C13.6517 16.8668 13.6826 17.044 13.7425 17.2093C13.8024 17.3747 13.8903 17.5249 14.001 17.6514C14.1117 17.7779 14.2432 17.8782 14.3879 17.9467C14.5326 18.0151 14.6876 18.0503 14.8442 18.0503H28.4312C28.7474 18.0503 29.0506 17.9067 29.2742 17.6513C29.4979 17.3958 29.6235 17.0492 29.6236 16.6879V15.4307Z" fill="#F7F700"/>
<path d="M5.57539 23.1389C5.60189 23.1388 5.62812 23.1327 5.65253 23.1209C5.67693 23.1091 5.69902 23.0918 5.71749 23.0701L10.0669 20.2001L10.062 20.1905C10.0924 20.1713 10.1177 20.1433 10.1355 20.1093C10.1533 20.0753 10.1628 20.0365 10.1632 19.9969C10.1631 19.9528 10.1519 19.9097 10.1307 19.8728C10.1096 19.836 10.0795 19.8069 10.0442 19.7893L10.0463 19.7853L5.71469 16.9269C5.68711 16.8961 5.65227 16.8751 5.61444 16.8666C5.57661 16.8581 5.53743 16.8623 5.50167 16.8788C5.46592 16.8953 5.43515 16.9234 5.41312 16.9595C5.39109 16.9957 5.37876 17.0384 5.37764 17.0825H5.37659V22.9117C5.37654 22.9415 5.38165 22.9711 5.39163 22.9987C5.4016 23.0263 5.41624 23.0513 5.43471 23.0725C5.45318 23.0936 5.47511 23.1103 5.49925 23.1217C5.5234 23.1331 5.54927 23.1389 5.57539 23.1389Z" fill="#F7F700"/>
</svg>
