<svg width="35" height="40" viewBox="0 0 35 40" fill="none" xmlns="http://www.w3.org/2000/svg">
<path d="M28.4311 6.0553H6.56904C6.25278 6.0553 5.94948 6.19888 5.72585 6.45445C5.50222 6.71003 5.37659 7.05666 5.37659 7.4181V8.6753C5.37659 9.03674 5.50222 9.38337 5.72585 9.63894C5.94948 9.89452 6.25278 10.0381 6.56904 10.0381H28.4311C28.7473 10.0381 29.0506 9.89452 29.2743 9.63894C29.4979 9.38337 29.6235 9.03674 29.6235 8.6753V7.4181C29.6235 7.05666 29.4979 6.71003 29.2743 6.45445C29.0506 6.19888 28.7473 6.0553 28.4311 6.0553Z" fill="#F7F700"/>
<path d="M28.4311 29.962H6.56904C6.25278 29.962 5.94948 30.1056 5.72585 30.3612C5.50222 30.6168 5.37659 30.9634 5.37659 31.3248V32.582C5.37659 32.9435 5.50222 33.2901 5.72585 33.5457C5.94948 33.8013 6.25278 33.9448 6.56904 33.9448H28.4311C28.7473 33.9448 29.0506 33.8013 29.2743 33.5457C29.4979 33.2901 29.6235 32.9435 29.6235 32.582V31.3248C29.6234 30.9634 29.4978 30.6169 29.2742 30.3613C29.0506 30.1058 28.7473 29.9621 28.4311 29.962Z" fill="#F7F700"/>
<path d="M29.6236 23.356C29.6236 22.9945 29.498 22.6479 29.2744 22.3923C29.0507 22.1367 28.7474 21.9932 28.4312 21.9932H14.8442C14.5279 21.9932 14.2246 22.1367 14.001 22.3923C13.7774 22.6479 13.6517 22.9945 13.6517 23.356V24.6132C13.6517 24.7921 13.6826 24.9693 13.7425 25.1346C13.8024 25.2999 13.8903 25.4502 14.001 25.5767C14.1117 25.7032 14.2432 25.8035 14.3879 25.872C14.5326 25.9404 14.6876 25.9756 14.8442 25.9756H28.4312C28.7474 25.9756 29.0506 25.832 29.2742 25.5765C29.4979 25.3211 29.6235 24.9745 29.6236 24.6132V23.356Z" fill="#F7F700"/>
<path d="M29.6236 15.4308C29.6236 15.0694 29.498 14.7227 29.2744 14.4671C29.0507 14.2116 28.7474 14.068 28.4312 14.068H14.8442C14.6876 14.068 14.5325 14.1032 14.3879 14.1717C14.2432 14.2402 14.1117 14.3406 14.001 14.4671C13.8903 14.5937 13.8024 14.7439 13.7425 14.9093C13.6826 15.0746 13.6517 15.2518 13.6517 15.4308V16.688C13.6517 16.8669 13.6826 17.0441 13.7425 17.2095C13.8024 17.3748 13.8903 17.525 14.001 17.6515C14.1117 17.778 14.2432 17.8784 14.3879 17.9468C14.5326 18.0152 14.6876 18.0504 14.8442 18.0504H28.4312C28.7474 18.0504 29.0506 17.9069 29.2742 17.6514C29.4979 17.3959 29.6235 17.0494 29.6236 16.688V15.4308Z" fill="#F7F700"/>
<path d="M5.57539 23.139C5.60189 23.139 5.62812 23.1329 5.65253 23.121C5.67693 23.1092 5.69902 23.0919 5.71749 23.0702L10.0669 20.2002L10.062 20.1906C10.0924 20.1714 10.1177 20.1434 10.1355 20.1094C10.1533 20.0754 10.1628 20.0366 10.1632 19.997C10.1631 19.9529 10.1519 19.9098 10.1307 19.8729C10.1096 19.8361 10.0795 19.807 10.0442 19.7894L10.0463 19.7854L5.71469 16.927C5.68711 16.8962 5.65227 16.8753 5.61444 16.8667C5.57661 16.8582 5.53743 16.8624 5.50167 16.8789C5.46592 16.8954 5.43515 16.9235 5.41312 16.9597C5.39109 16.9958 5.37876 17.0386 5.37764 17.0826H5.37659V22.9118C5.37654 22.9417 5.38165 22.9712 5.39163 22.9988C5.4016 23.0264 5.41624 23.0515 5.43471 23.0726C5.45318 23.0937 5.47511 23.1104 5.49925 23.1218C5.5234 23.1332 5.54927 23.1391 5.57539 23.139Z" fill="#F7F700"/>
</svg>
