<svg width="27" height="27" viewBox="0 0 27 27" fill="none" xmlns="http://www.w3.org/2000/svg">
<path d="M13.5 3.375C7.91691 3.375 3.375 7.91691 3.375 13.5C3.375 19.0831 7.91691 23.625 13.5 23.625C19.0831 23.625 23.625 19.0831 23.625 13.5C23.625 7.91691 19.0831 3.375 13.5 3.375ZM13.5 5.0625C18.1702 5.0625 21.9375 8.82984 21.9375 13.5C21.9375 18.1702 18.1702 21.9375 13.5 21.9375C8.82984 21.9375 5.0625 18.1702 5.0625 13.5C5.0625 8.82984 8.82984 5.0625 13.5 5.0625ZM13.5262 6.61837C12.5333 6.6402 11.5884 7.04971 10.8937 7.75929C10.1989 8.46887 9.80946 9.42217 9.80859 10.4152V11.4438C9.80859 11.621 9.94697 11.7593 10.125 11.7593H10.9164C10.958 11.7598 10.9992 11.7519 11.0377 11.7362C11.0762 11.7205 11.1112 11.6973 11.1406 11.6679C11.17 11.6385 11.1932 11.6036 11.2089 11.5651C11.2246 11.5266 11.2325 11.4853 11.232 11.4438V10.4144C11.232 9.12938 12.2175 8.03503 13.5 7.98947C14.8483 7.93969 15.9789 9.02391 15.9789 10.3621V11.4429C15.9789 11.621 16.1173 11.7602 16.2953 11.7602H17.0598C17.1016 11.7608 17.143 11.7529 17.1817 11.7372C17.2204 11.7214 17.2556 11.6981 17.2851 11.6685C17.3146 11.6389 17.3379 11.6037 17.3535 11.5649C17.3692 11.5262 17.3769 11.4847 17.3762 11.4429V10.4676C17.3762 8.34553 15.649 6.57787 13.5262 6.61837ZM8.80706 12.1027C8.41809 12.1027 8.09494 12.3989 8.09494 12.7879V18.2461C8.09494 18.6342 8.41809 18.9321 8.80706 18.9321H18.3516C18.7397 18.9321 19.0637 18.6351 19.0637 18.2461V12.7879C19.0637 12.3997 18.7405 12.1027 18.3516 12.1027H8.80706ZM8.93869 12.7879H9.25509C9.29688 12.7885 9.33676 12.8055 9.36623 12.8351C9.3957 12.8647 9.41244 12.9047 9.41288 12.9465V18.1145C9.41222 18.1561 9.39539 18.1959 9.36594 18.2253C9.33649 18.2548 9.29674 18.2716 9.25509 18.2723H8.93869C8.8969 18.2718 8.85693 18.2551 8.8273 18.2256C8.79767 18.1961 8.78072 18.1563 8.78006 18.1145V12.9465C8.7805 12.9046 8.79736 12.8645 8.82701 12.8348C8.85666 12.8052 8.89675 12.7883 8.93869 12.7879ZM13.5532 13.4738C14.294 13.4738 14.8973 14.0771 14.8973 14.8188C14.899 15.053 14.839 15.2836 14.7233 15.4872C14.6077 15.6909 14.4404 15.8605 14.2383 15.9789V17.2446C14.2383 17.4285 14.0797 17.561 13.8957 17.561H13.2098C13.025 17.561 12.8672 17.4285 12.8672 17.2446V15.9789C12.6651 15.8605 12.4978 15.6909 12.3821 15.4872C12.2664 15.2836 12.2065 15.053 12.2082 14.8188C12.2082 14.0763 12.8115 13.4738 13.5532 13.4738Z" fill="#F7F700"/>
</svg>
