<svg width="36" height="36" viewBox="0 0 36 36" fill="none" xmlns="http://www.w3.org/2000/svg">
<path d="M18 3.65625C20.5011 3.65694 22.9586 4.31143 25.1288 5.55482C27.2989 6.79821 29.1063 8.58729 30.3718 10.7447C31.6373 12.902 32.3168 15.3527 32.343 17.8537C32.3692 20.3547 31.7411 22.819 30.5211 25.0024L31.7551 29.3212C31.8515 29.6588 31.8559 30.016 31.7678 30.3559C31.6797 30.6957 31.5023 31.0059 31.254 31.2541C31.0058 31.5024 30.6956 31.6797 30.3557 31.7678C30.0159 31.8558 29.6586 31.8514 29.321 31.755L25.0022 30.5211C23.089 31.5909 20.9561 32.2081 18.7673 32.3252C16.5785 32.4423 14.3919 32.0563 12.3755 31.1967C10.3591 30.3371 8.56657 29.0269 7.13546 27.3666C5.70434 25.7063 4.67275 23.7401 4.1199 21.619C3.56705 19.4979 3.50765 17.2783 3.94625 15.1307C4.38486 12.983 5.3098 10.9645 6.65006 9.23C7.99032 7.49552 9.71024 6.09127 11.6778 5.12506C13.6453 4.15884 15.8081 3.65638 18 3.65625ZM18 30.6562C20.273 30.6577 22.5043 30.0463 24.4589 28.8863C24.5578 28.8276 24.6676 28.7896 24.7816 28.7748C24.8957 28.76 25.0115 28.7687 25.1221 28.8003L29.7847 30.1324C29.8329 30.1462 29.884 30.1469 29.9325 30.1343C29.9811 30.1217 30.0254 30.0964 30.0609 30.0609C30.0964 30.0254 30.1217 29.9811 30.1343 29.9325C30.1469 29.8839 30.1462 29.8329 30.1324 29.7847L28.8003 25.1221C28.7688 25.0116 28.7602 24.8957 28.775 24.7817C28.7898 24.6678 28.8278 24.558 28.8865 24.4592C30.3121 22.0575 30.9033 19.2517 30.5681 16.479C30.2328 13.7063 28.99 11.1223 27.0331 9.12951C25.0763 7.13675 22.5153 5.84714 19.7491 5.46158C16.9829 5.07601 14.1669 5.61613 11.7397 6.99781C9.31245 8.37948 7.41035 10.5251 6.32966 13.1005C5.24898 15.6759 5.0504 18.5363 5.76486 21.2363C6.47931 23.9363 8.06668 26.3242 10.2797 28.028C12.4927 29.7318 15.2071 30.6559 18 30.6562ZM23.3438 17.9996C23.3438 18.2777 23.4262 18.5496 23.5808 18.7808C23.7353 19.0121 23.9549 19.1923 24.2119 19.2988C24.4688 19.4052 24.7516 19.4331 25.0244 19.3788C25.2972 19.3245 25.5477 19.1906 25.7444 18.9939C25.9411 18.7973 26.075 18.5467 26.1293 18.2739C26.1835 18.0011 26.1557 17.7184 26.0492 17.4614C25.9428 17.2045 25.7625 16.9848 25.5313 16.8303C25.3 16.6758 25.0282 16.5933 24.75 16.5933C24.3772 16.5938 24.0198 16.7421 23.7561 17.0057C23.4925 17.2693 23.3442 17.6268 23.3438 17.9996ZM16.5938 17.9996C16.5938 18.2777 16.6762 18.5496 16.8308 18.7808C16.9853 19.0121 17.2049 19.1923 17.4619 19.2988C17.7188 19.4052 18.0016 19.4331 18.2744 19.3788C18.5472 19.3245 18.7977 19.1906 18.9944 18.9939C19.1911 18.7973 19.325 18.5467 19.3792 18.2739C19.4335 18.0011 19.4057 17.7184 19.2992 17.4614C19.1928 17.2045 19.0125 16.9848 18.7813 16.8303C18.55 16.6758 18.2781 16.5933 18 16.5933C17.6272 16.5938 17.2698 16.7421 17.0061 17.0057C16.7425 17.2693 16.5942 17.6268 16.5938 17.9996ZM9.84377 17.9996C9.84377 18.2777 9.92624 18.5496 10.0808 18.7808C10.2353 19.0121 10.4549 19.1923 10.7119 19.2988C10.9688 19.4052 11.2516 19.4331 11.5244 19.3788C11.7971 19.3245 12.0477 19.1906 12.2444 18.9939C12.4411 18.7973 12.575 18.5467 12.6292 18.2739C12.6835 18.0011 12.6557 17.7184 12.5492 17.4614C12.4428 17.2045 12.2625 16.9848 12.0313 16.8303C11.8 16.6758 11.5281 16.5933 11.25 16.5933C10.8772 16.5938 10.5198 16.7421 10.2561 17.0057C9.99252 17.2693 9.84422 17.6268 9.84377 17.9996Z" fill="#F7F700"/>
</svg>
