<svg width="26" height="26" viewBox="0 0 26 26" fill="none" xmlns="http://www.w3.org/2000/svg">
<path d="M21.9372 5.28125H17.4688V4.0625C17.4682 3.52397 17.254 3.00767 16.8732 2.62687C16.4924 2.24607 15.9761 2.03187 15.4376 2.03125H10.5626C10.0241 2.03187 9.50777 2.24607 9.12697 2.62687C8.74617 3.00767 8.53197 3.52397 8.53135 4.0625V5.28125H4.06219C3.95445 5.28125 3.85112 5.32405 3.77493 5.40024C3.69875 5.47642 3.65594 5.57976 3.65594 5.6875C3.65594 5.79524 3.69875 5.89858 3.77493 5.97476C3.85112 6.05095 3.95445 6.09375 4.06219 6.09375H5.28094V21.125C5.28132 21.4481 5.40985 21.7579 5.63832 21.9864C5.8668 22.2148 6.17658 22.3434 6.49969 22.3438H19.4997C19.8228 22.3434 20.1326 22.2148 20.3611 21.9864C20.5895 21.7579 20.7181 21.4481 20.7184 21.125V6.09375H21.9372C22.0449 6.09375 22.1483 6.05095 22.2245 5.97476C22.3006 5.89858 22.3434 5.79524 22.3434 5.6875C22.3434 5.57976 22.3006 5.47642 22.2245 5.40024C22.1483 5.32405 22.0449 5.28125 21.9372 5.28125ZM9.34385 4.0625C9.34423 3.73938 9.47275 3.42961 9.70123 3.20113C9.92971 2.97265 10.2395 2.84413 10.5626 2.84375H15.4376C15.7607 2.84413 16.0705 2.97265 16.299 3.20113C16.5274 3.42961 16.656 3.73938 16.6563 4.0625V5.28125H9.34385V4.0625ZM19.9059 21.125C19.9058 21.2327 19.863 21.336 19.7868 21.4121C19.7106 21.4883 19.6074 21.5311 19.4997 21.5312H6.49969C6.39199 21.5311 6.28874 21.4883 6.21258 21.4121C6.13642 21.336 6.09358 21.2327 6.09344 21.125V6.09375H19.9059V21.125ZM10.9688 10.5625V17.0625C10.9688 17.1702 10.926 17.2736 10.8499 17.3498C10.7737 17.4259 10.6703 17.4688 10.5626 17.4688C10.4549 17.4688 10.3515 17.4259 10.2753 17.3498C10.1992 17.2736 10.1563 17.1702 10.1563 17.0625V10.5625C10.1563 10.4548 10.1992 10.3514 10.2753 10.2752C10.3515 10.1991 10.4549 10.1562 10.5626 10.1562C10.6703 10.1562 10.7737 10.1991 10.8499 10.2752C10.926 10.3514 10.9688 10.4548 10.9688 10.5625ZM15.8438 10.5625V17.0625C15.8438 17.1702 15.801 17.2736 15.7249 17.3498C15.6487 17.4259 15.5453 17.4688 15.4376 17.4688C15.3299 17.4688 15.2265 17.4259 15.1503 17.3498C15.0741 17.2736 15.0313 17.1702 15.0313 17.0625V10.5625C15.0313 10.4548 15.0741 10.3514 15.1503 10.2752C15.2265 10.1991 15.3299 10.1562 15.4376 10.1562C15.5453 10.1562 15.6487 10.1991 15.7249 10.2752C15.801 10.3514 15.8438 10.4548 15.8438 10.5625Z" fill="#F7F700"/>
</svg>
