<svg width="34" height="32" viewBox="0 0 34 32" fill="none" xmlns="http://www.w3.org/2000/svg">
<path d="M25.5 1.86255C21.25 1.86255 19.1117 3.58755 17 5.86255C14.8883 3.58755 12.75 1.86255 8.5 1.86255C4.25 1.86255 0 4.5313 0 12.5313C0 16.5313 4.25 24.5313 17 31.2001C29.75 24.5313 34 16.5313 34 12.5313C34 4.5313 29.75 1.86255 25.5 1.86255ZM17 28.125C5.42539 21.6625 2.83555 14.7313 2.83555 12.5313C2.83555 8.8813 3.81836 4.5313 8.5 4.5313C11.475 4.5313 12.9227 5.52505 14.8684 7.6188L17 9.86255L19.1316 7.6188C21.0773 5.52505 22.525 4.5313 25.5 4.5313C30.1816 4.5313 31.1645 8.8813 31.1645 12.5313C31.1645 14.7313 28.5746 21.6625 17 28.125Z" fill="#F7F700"/>
</svg>
