<svg width="21" height="17" viewBox="0 0 21 17" fill="none" xmlns="http://www.w3.org/2000/svg">
<path d="M20.4558 2.16494C19.7334 2.48503 18.9574 2.70131 18.1416 2.79907C18.9834 2.29539 19.6131 1.50266 19.9134 0.5688C19.1225 1.03855 18.257 1.3692 17.3544 1.54638C16.7474 0.898292 15.9434 0.468729 15.0673 0.324383C14.1911 0.180036 13.2919 0.328983 12.5091 0.748098C11.7263 1.16721 11.1037 1.83305 10.7381 2.64222C10.3725 3.4514 10.2842 4.35865 10.4871 5.22312C8.88462 5.14266 7.31698 4.72615 5.8859 4.00063C4.45483 3.27511 3.19229 2.25678 2.18025 1.01174C1.8342 1.60867 1.63522 2.30076 1.63522 3.03784C1.63484 3.70138 1.79824 4.35475 2.11093 4.93999C2.42362 5.52524 2.87594 6.02425 3.42774 6.39276C2.7878 6.37239 2.16197 6.19947 1.60235 5.88839V5.9403C1.60229 6.87094 1.9242 7.77294 2.51347 8.49325C3.10275 9.21356 3.92308 9.70782 4.83529 9.89215C4.24163 10.0528 3.61923 10.0765 3.01508 9.96136C3.27245 10.7621 3.77379 11.4624 4.4489 11.964C5.12401 12.4657 5.9391 12.7437 6.78006 12.7591C5.35248 13.8798 3.58942 14.4877 1.77451 14.485C1.45301 14.4851 1.13179 14.4664 0.8125 14.4288C2.65474 15.6133 4.79924 16.2419 6.98942 16.2395C14.4035 16.2395 18.4565 10.0989 18.4565 4.77326C18.4565 4.60024 18.4522 4.42548 18.4444 4.25246C19.2328 3.68233 19.9133 2.97633 20.4541 2.16753L20.4558 2.16494Z" fill="white"/>
</svg>
