<svg width="34" height="34" viewBox="0 0 34 34" fill="none" xmlns="http://www.w3.org/2000/svg">
<g filter="url(#filter0_d_701_332)">
<path d="M26.75 13L30 16.25L25.9375 17.875L26.75 22.75L21.875 21.9375L20.25 26L17 22.75L13.75 26L12.125 21.9375L7.25 22.75L8.0625 17.875L4 16.25L7.25 13L4 9.75L8.0625 8.125L7.25 3.25L12.125 4.0625L13.75 0L17 3.25L20.25 0L21.875 4.0625L26.75 3.25L25.9375 8.125L30 9.75L26.75 13ZM12.9375 6.5C12.2604 6.5 11.6849 6.81738 11.2109 7.45215C10.737 8.08691 10.5 8.85286 10.5 9.75C10.5 10.6471 10.737 11.4131 11.2109 12.0479C11.6849 12.6826 12.2604 13 12.9375 13C13.6146 13 14.1901 12.6826 14.6641 12.0479C15.138 11.4131 15.375 10.6471 15.375 9.75C15.375 8.85286 15.138 8.08691 14.6641 7.45215C14.1901 6.81738 13.6146 6.5 12.9375 6.5ZM21.0625 6.5H20.25C20.1823 6.5 20.1188 6.5127 20.0596 6.53809C20.0003 6.56348 19.9538 6.58464 19.9199 6.60156C19.8861 6.61849 19.8395 6.66504 19.7803 6.74121C19.721 6.81738 19.6829 6.86816 19.666 6.89355C19.6491 6.91895 19.611 6.98665 19.5518 7.09668C19.4925 7.20671 19.4544 7.27865 19.4375 7.3125L12.252 18.6875C12.1335 18.8906 12.1589 19.0768 12.3281 19.2461C12.4974 19.4154 12.7005 19.5 12.9375 19.5H13.75C13.8177 19.5 13.8727 19.4958 13.915 19.4873C13.9574 19.4788 14.0039 19.4577 14.0547 19.4238C14.1055 19.39 14.1436 19.3604 14.1689 19.335C14.1943 19.3096 14.2282 19.263 14.2705 19.1953C14.3128 19.1276 14.3424 19.0768 14.3594 19.043C14.3763 19.0091 14.4102 18.9499 14.4609 18.8652C14.5117 18.7806 14.5456 18.7214 14.5625 18.6875L21.748 7.3125C21.8665 7.10938 21.8411 6.92318 21.6719 6.75391C21.5026 6.58464 21.2995 6.5 21.0625 6.5ZM21.0625 13C20.3854 13 19.8099 13.3174 19.3359 13.9521C18.862 14.5869 18.625 15.3529 18.625 16.25C18.625 17.1471 18.862 17.9131 19.3359 18.5479C19.8099 19.1826 20.3854 19.5 21.0625 19.5C21.7396 19.5 22.3151 19.1826 22.7891 18.5479C23.263 17.9131 23.5 17.1471 23.5 16.25C23.5 15.3529 23.263 14.5869 22.7891 13.9521C22.3151 13.3174 21.7396 13 21.0625 13ZM21.0625 17.875C20.8424 17.875 20.652 17.7142 20.4912 17.3926C20.3304 17.071 20.25 16.6859 20.25 16.2373C20.25 15.7887 20.3304 15.4079 20.4912 15.0947C20.652 14.7816 20.8424 14.625 21.0625 14.625C21.2826 14.625 21.473 14.7816 21.6338 15.0947C21.7946 15.4079 21.875 15.7887 21.875 16.2373C21.875 16.6859 21.7946 17.071 21.6338 17.3926C21.473 17.7142 21.2826 17.875 21.0625 17.875ZM12.9375 11.375C12.7174 11.375 12.527 11.2142 12.3662 10.8926C12.2054 10.571 12.125 10.1859 12.125 9.7373C12.125 9.28874 12.2054 8.90788 12.3662 8.59473C12.527 8.28158 12.7174 8.125 12.9375 8.125C13.1576 8.125 13.348 8.28158 13.5088 8.59473C13.6696 8.90788 13.75 9.28874 13.75 9.7373C13.75 10.1859 13.6696 10.571 13.5088 10.8926C13.348 11.2142 13.1576 11.375 12.9375 11.375Z" fill="#F7F700"/>
</g>
<defs>
<filter id="filter0_d_701_332" x="0" y="0" width="34" height="34" filterUnits="userSpaceOnUse" color-interpolation-filters="sRGB">
<feFlood flood-opacity="0" result="BackgroundImageFix"/>
<feColorMatrix in="SourceAlpha" type="matrix" values="0 0 0 0 0 0 0 0 0 0 0 0 0 0 0 0 0 0 127 0" result="hardAlpha"/>
<feOffset dy="4"/>
<feGaussianBlur stdDeviation="2"/>
<feColorMatrix type="matrix" values="0 0 0 0 0 0 0 0 0 0 0 0 0 0 0 0 0 0 0.25 0"/>
<feBlend mode="normal" in2="BackgroundImageFix" result="effect1_dropShadow_701_332"/>
<feBlend mode="normal" in="SourceGraphic" in2="effect1_dropShadow_701_332" result="shape"/>
</filter>
</defs>
</svg>
